<mxfile host="app.diagrams.net" modified="2022-07-25T06:44:54.730Z" agent="5.0 (Macintosh; Intel Mac OS X 10_15_7) AppleWebKit/537.36 (KHTML, like Gecko) Chrome/103.0.0.0 Safari/537.36" etag="1Pi_QVR9iTfkftYtXMj9" version="20.2.0" type="github">
  <diagram id="PE9LwXxQQbcbUWWuchnT" name="第 1 页">
    <mxGraphModel dx="1176" dy="684" grid="1" gridSize="10" guides="1" tooltips="1" connect="1" arrows="1" fold="1" page="1" pageScale="1" pageWidth="827" pageHeight="1169" math="0" shadow="0">
      <root>
        <mxCell id="0" />
        <mxCell id="1" parent="0" />
        <mxCell id="L4WAofT8WboGvsGtaW92-8" style="edgeStyle=orthogonalEdgeStyle;rounded=0;orthogonalLoop=1;jettySize=auto;html=1;exitX=0.5;exitY=1;exitDx=0;exitDy=0;entryX=0.5;entryY=0;entryDx=0;entryDy=0;fontSize=24;" edge="1" parent="1" source="L4WAofT8WboGvsGtaW92-1" target="L4WAofT8WboGvsGtaW92-2">
          <mxGeometry relative="1" as="geometry" />
        </mxCell>
        <mxCell id="L4WAofT8WboGvsGtaW92-1" value="vedioApi" style="rounded=0;whiteSpace=wrap;html=1;fillColor=#dae8fc;strokeColor=#6c8ebf;" vertex="1" parent="1">
          <mxGeometry x="180" y="200" width="120" height="60" as="geometry" />
        </mxCell>
        <mxCell id="L4WAofT8WboGvsGtaW92-2" value="vediodispatcher" style="rounded=0;whiteSpace=wrap;html=1;fillColor=#dae8fc;strokeColor=#6c8ebf;" vertex="1" parent="1">
          <mxGeometry x="180" y="320" width="120" height="60" as="geometry" />
        </mxCell>
        <mxCell id="L4WAofT8WboGvsGtaW92-5" style="edgeStyle=orthogonalEdgeStyle;rounded=0;orthogonalLoop=1;jettySize=auto;html=1;exitX=0.5;exitY=1;exitDx=0;exitDy=0;" edge="1" parent="1" source="L4WAofT8WboGvsGtaW92-3" target="L4WAofT8WboGvsGtaW92-1">
          <mxGeometry relative="1" as="geometry" />
        </mxCell>
        <mxCell id="L4WAofT8WboGvsGtaW92-3" value="" style="shape=actor;whiteSpace=wrap;html=1;fillColor=#dae8fc;strokeColor=#6c8ebf;" vertex="1" parent="1">
          <mxGeometry x="215" y="50" width="50" height="60" as="geometry" />
        </mxCell>
        <mxCell id="L4WAofT8WboGvsGtaW92-4" value="SDK" style="text;html=1;align=center;verticalAlign=middle;resizable=0;points=[];autosize=1;strokeColor=none;fillColor=none;" vertex="1" parent="1">
          <mxGeometry x="265" y="80" width="50" height="30" as="geometry" />
        </mxCell>
        <mxCell id="L4WAofT8WboGvsGtaW92-6" value="http post batchgetdispatcherinfo" style="text;html=1;align=center;verticalAlign=middle;resizable=0;points=[];autosize=1;strokeColor=none;fillColor=none;" vertex="1" parent="1">
          <mxGeometry x="240" y="140" width="190" height="30" as="geometry" />
        </mxCell>
        <mxCell id="L4WAofT8WboGvsGtaW92-7" value="查媒资多级缓存" style="text;html=1;align=center;verticalAlign=middle;resizable=0;points=[];autosize=1;strokeColor=none;fillColor=none;fontSize=24;" vertex="1" parent="1">
          <mxGeometry x="20" y="20" width="190" height="40" as="geometry" />
        </mxCell>
        <mxCell id="L4WAofT8WboGvsGtaW92-11" value="rpc BatchGetdispatcheIinfo" style="text;html=1;align=center;verticalAlign=middle;resizable=0;points=[];autosize=1;strokeColor=none;fillColor=none;" vertex="1" parent="1">
          <mxGeometry x="240" y="280" width="170" height="30" as="geometry" />
        </mxCell>
        <mxCell id="L4WAofT8WboGvsGtaW92-16" style="edgeStyle=orthogonalEdgeStyle;rounded=0;orthogonalLoop=1;jettySize=auto;html=1;exitX=1;exitY=0.5;exitDx=0;exitDy=0;entryX=0;entryY=0.5;entryDx=0;entryDy=0;fontSize=12;" edge="1" parent="1" source="L4WAofT8WboGvsGtaW92-13" target="L4WAofT8WboGvsGtaW92-15">
          <mxGeometry relative="1" as="geometry" />
        </mxCell>
        <mxCell id="L4WAofT8WboGvsGtaW92-13" value="local cache" style="rounded=1;whiteSpace=wrap;html=1;fontSize=12;fillColor=#f8cecc;strokeColor=#b85450;" vertex="1" parent="1">
          <mxGeometry x="300" y="320" width="120" height="60" as="geometry" />
        </mxCell>
        <mxCell id="L4WAofT8WboGvsGtaW92-19" style="edgeStyle=orthogonalEdgeStyle;rounded=0;orthogonalLoop=1;jettySize=auto;html=1;exitX=1;exitY=0.5;exitDx=0;exitDy=0;entryX=0;entryY=0.5;entryDx=0;entryDy=0;fontSize=12;" edge="1" parent="1" source="L4WAofT8WboGvsGtaW92-15" target="L4WAofT8WboGvsGtaW92-17">
          <mxGeometry relative="1" as="geometry" />
        </mxCell>
        <mxCell id="L4WAofT8WboGvsGtaW92-15" value="redis" style="rounded=1;whiteSpace=wrap;html=1;fontSize=12;fillColor=#f8cecc;strokeColor=#b85450;" vertex="1" parent="1">
          <mxGeometry x="450" y="320" width="120" height="60" as="geometry" />
        </mxCell>
        <mxCell id="L4WAofT8WboGvsGtaW92-17" value="rpc mediamanager" style="rounded=1;whiteSpace=wrap;html=1;fontSize=12;fillColor=#f8cecc;strokeColor=#b85450;" vertex="1" parent="1">
          <mxGeometry x="600" y="320" width="120" height="60" as="geometry" />
        </mxCell>
      </root>
    </mxGraphModel>
  </diagram>
</mxfile>
